<?xml version="1.0" encoding="utf-8"?>
<svg width="128" height="128" viewBox="0 0 128 128" xmlns="http://www.w3.org/2000/svg">
  <defs>
    <linearGradient id="baseGradient" x1="50%" y1="0%" x2="50%" y2="100%">
      <stop offset="0" style="stop-color:#62a0ea;stop-opacity:1"/>
      <stop offset="1" style="stop-color:#3584e4;stop-opacity:1"/>
    </linearGradient>
    <linearGradient id="sunGradient" x1="0%" y1="0%" x2="100%" y2="100%">
      <stop offset="0" style="stop-color:#f9f06b;stop-opacity:1"/>
      <stop offset="1" style="stop-color:#f6d32d;stop-opacity:1"/>
    </linearGradient>
    <filter id="shadow" x="-50%" y="-50%" width="200%" height="200%">
      <feGaussianBlur in="SourceAlpha" stdDeviation="2"/>
      <feOffset dx="0" dy="4" result="offsetblur"/>
      <feComponentTransfer>
        <feFuncA type="linear" slope="0.3"/>
      </feComponentTransfer>
      <feMerge>
        <feMergeNode/>
        <feMergeNode in="SourceGraphic"/>
      </feMerge>
    </filter>
  </defs>
  <g filter="url(#shadow)">
    <rect x="16" y="16" width="96" height="96" rx="8" ry="8" fill="url(#baseGradient)"/>
    <circle cx="80" cy="40" r="12" fill="url(#sunGradient)" opacity="0.9"/>
    <path d="M 16 80 L 40 50 L 70 90 L 90 70 L 112 100 V 104 H 16 Z" fill="#1c71d8" opacity="0.5"/>
    <path d="M 16 112 L 16 90 L 50 112 Z" fill="#1a5fb4" opacity="0.4"/>
    <rect x="16" y="16" width="96" height="96" rx="8" ry="8" fill="none" stroke="rgba(0,0,0,0.1)" stroke-width="1"/>
    <path d="M 24 17 H 104 A 7 7 0 0 1 111 24 V 104 A 7 7 0 0 1 104 111 H 24 A 7 7 0 0 1 17 104 V 24 A 7 7 0 0 1 24 17 Z" fill="none" stroke="white" stroke-opacity="0.15" stroke-width="1"/>
  </g>
  <g transform="translate(0, 0)">
    <rect x="12" y="12" width="104" height="104" rx="10" fill="none" stroke="#99c1f1" stroke-width="2" stroke-dasharray="8 4"/>
    <circle cx="12" cy="12" r="6" fill="#ffffff" stroke="#3584e4" stroke-width="2" filter="url(#shadow)"/>
    <circle cx="116" cy="12" r="6" fill="#ffffff" stroke="#3584e4" stroke-width="2" filter="url(#shadow)"/>
    <circle cx="12" cy="116" r="6" fill="#ffffff" stroke="#3584e4" stroke-width="2" filter="url(#shadow)"/>
    <circle cx="116" cy="116" r="6" fill="#ffffff" stroke="#3584e4" stroke-width="2" filter="url(#shadow)"/>
  </g>
</svg>